PathFileType	4	(X/Y/Z)	/Users/itak/Documents/Research/Walk-IL/dataset/trc/00277_00010.trc
DataRate	CameraRate	NumFrames	NumMarkers	Units	OrigDataRate	OrigDataStartFrame	OrigNumFrames
100.000000	100.000000	4	53	mm	100.000000	252	672
Frame#	Time	RPSI			LPSI			L3			STRN			T10			C7			CLAV			RBAK			LBAK			LSHO			LUPA			LAEL			LAOL			LWTS			LWPS			LFRA			LIFD			LHPS			LHTS			RSHO			RUPA			RAEL			RAOL			RWTS			RWPS			RFRA			RIFD			RHTS			RHPS			RBHD			LFHD			RFHD			LBHD			LHIP			RHIP			RASI			LASI			LKNE			LTHI			LANK			LTIP			LTOE			LMT1			LMT5			LHEE			RKNE			RTHI			RANK			RTIP			RTOE			RMT1			RMT5			RHEE			
		X1	Y1	Z1	X2	Y2	Z2	X3	Y3	Z3	X4	Y4	Z4	X5	Y5	Z5	X6	Y6	Z6	X7	Y7	Z7	X8	Y8	Z8	X9	Y9	Z9	X10	Y10	Z10	X11	Y11	Z11	X12	Y12	Z12	X13	Y13	Z13	X14	Y14	Z14	X15	Y15	Z15	X16	Y16	Z16	X17	Y17	Z17	X18	Y18	Z18	X19	Y19	Z19	X20	Y20	Z20	X21	Y21	Z21	X22	Y22	Z22	X23	Y23	Z23	X24	Y24	Z24	X25	Y25	Z25	X26	Y26	Z26	X27	Y27	Z27	X28	Y28	Z28	X29	Y29	Z29	X30	Y30	Z30	X31	Y31	Z31	X32	Y32	Z32	X33	Y33	Z33	X34	Y34	Z34	X35	Y35	Z35	X36	Y36	Z36	X37	Y37	Z37	X38	Y38	Z38	X39	Y39	Z39	X40	Y40	Z40	X41	Y41	Z41	X42	Y42	Z42	X43	Y43	Z43	X44	Y44	Z44	X45	Y45	Z45	X46	Y46	Z46	X47	Y47	Z47	X48	Y48	Z48	X49	Y49	Z49	X50	Y50	Z50	X51	Y51	Z51	X52	Y52	Z52	X53	Y53	Z53	

253	2.52	1162.056030273438	972.064697265625	155.2665863037109	987.5031127929688	963.9356079101562	173.2427825927734	1073.692993164062	1042.728393554688	148.3210144042969	1032.11181640625	1220.220581054688	-93.90528869628906	1078.4453125	1159.260986328125	169.2520599365234	1041.38134765625	1402.483276367188	130.3773498535156	1029.335571289062	1317.462646484375	-26.60807609558105	1133.522216796875	1272.359008789062	166.8492736816406	945.5556640625	1357.346923828125	164.7436676025391	879.678955078125	1358.36865234375	82.1900634765625	820.4263916015625	1240.76806640625	127.929931640625	815.863037109375	1040.116088867188	135.2016448974609	887.9920043945312	1030.45556640625	185.4025573730469	840.582763671875	835.5462646484375	26.46160507202148	789.0736083984375	815.6820068359375	73.11808013916016	803.9530639648438	939.7481079101562	116.4104843139648	840.2904663085938	650.41650390625	-7.316765785217285	791.8629150390625	728.8931274414062	55.21339797973633	815.0841064453125	740.62890625	-5.925114631652832	1185.307495117188	1393.95947265625	37.46080780029297	1256.718383789062	1342.17041015625	34.9907112121582	1328.883178710938	1083.31298828125	54.47953033447266	1244.17822265625	1070.448974609375	95.26305389404297	1284.693603515625	861.5255737304688	-49.48749923706055	1361.653198242188	859.9557495117188	-14.45099067687988	1344.328125	1016.490844726562	29.53998565673828	1286.918212890625	675.70068359375	-53.95433807373047	1302.158813476562	746.4468383789062	-80.60063171386719	1357.60205078125	746.429443359375	-37.59058380126953	1071.20703125	1581.26025390625	52.62518692016602	877.723876953125	1554.940307617188	-33.0189094543457	954.6458129882812	1575.983032226562	-80.39338684082031	953.7893676757812	1538.644287109375	127.8952865600586	886.42724609375	916.7395629882812	112.1832275390625	1252.929443359375	925.0993041992188	42.87751388549805	1170.861206054688	932.7254028320312	-69.02745056152344	921.9447631835938	927.74609375	-28.91991424560547	982.4966430664062	460.9275512695312	-44.36079025268555	930.6257934570312	595.1563720703125	-8.738204956054688	1084.52734375	34.87882995605469	26.95526695251465	1027.127685546875	231.6465148925781	-11.95314407348633	1143.088623046875	26.79590225219727	-183.5702667236328	1180.94775390625	17.57734870910645	-111.2969741821289	1071.491943359375	34.21092987060547	-97.18410491943359	1144.97412109375	25.59430694580078	70.82228088378906	1241.207275390625	481.3284301757812	-121.7946090698242	1251.263305664062	731.3783569335938	-59.44841384887695	1338.970947265625	196.2521820068359	214.9385986328125	1253.504516601562	374.3392944335938	-67.66066741943359	1256.139892578125	57.11124801635742	102.3527603149414	1224.728271484375	98.16502380371094	147.9705505371094	1342.223388671875	105.1122665405273	161.3717346191406	1297.429565429688	239.6031188964844	253.6654815673828	
254	2.53	1163.245849609375	972.9093017578125	144.6828765869141	989.1744995117188	964.37744140625	166.7005920410156	1073.7392578125	1043.207885742188	139.9622955322266	1028.798217773438	1221.573120117188	-101.6036758422852	1078.322509765625	1160.34326171875	160.9193115234375	1041.539794921875	1403.722045898438	122.2022399902344	1027.400512695312	1318.852905273438	-34.28532791137695	1133.643798828125	1273.254150390625	157.7725067138672	945.9833374023438	1359.128662109375	157.8417663574219	879.1871948242188	1360.542114257812	76.16447448730469	819.7058715820312	1243.144287109375	122.0198669433594	814.4500732421875	1042.770751953125	128.3832092285156	886.2808227539062	1032.297485351562	178.8572235107422	837.8179931640625	839.8734130859375	16.73443412780762	785.8009643554688	819.8724365234375	62.77504348754883	801.6298217773438	942.9110717773438	108.3562927246094	834.984375	655.4562377929688	-20.62767028808594	787.3621826171875	733.438720703125	43.19045639038086	811.0918579101562	746.000732421875	-17.55736923217773	1184.3466796875	1394.56591796875	27.63007545471191	1255.573120117188	1342.619262695312	24.41169738769531	1326.782470703125	1083.48681640625	44.33467483520508	1242.337646484375	1071.320434570312	85.96620178222656	1281.089965820312	860.8508911132812	-57.14646911621094	1358.379028320312	859.5013427734375	-22.72418785095215	1341.771118164062	1016.479309082031	19.77971458435059	1283.217041015625	674.959716796875	-59.89040756225586	1298.206665039062	745.382568359375	-87.28460693359375	1354.002563476562	745.811279296875	-44.75928497314453	1070.311889648438	1582.5712890625	42.83205795288086	875.7737426757812	1555.22216796875	-40.07679748535156	952.0119018554688	1576.07763671875	-88.56681823730469	953.9493408203125	1540.009033203125	119.6811294555664	886.5131225585938	916.7769165039062	108.4768600463867	1251.348510742188	926.692626953125	29.77608871459961	1166.34130859375	934.404052734375	-79.70352172851562	918.3764038085938	928.5336303710938	-33.79524993896484	981.932861328125	460.3914184570312	-45.53430938720703	930.38427734375	594.9286499023438	-10.8655366897583	1084.7822265625	34.96058654785156	26.93340682983398	1026.99072265625	231.6040802001953	-12.25172901153564	1143.025146484375	26.7526969909668	-183.6521606445312	1180.927124023438	17.50508117675781	-111.2697982788086	1071.558349609375	34.2220458984375	-97.20131683349609	1145.121704101562	25.73662757873535	70.79923248291016	1232.90380859375	485.2664184570312	-141.3855590820312	1246.417846679688	734.3349609375	-75.29905700683594	1342.225463867188	189.7256011962891	182.8305053710938	1246.857666015625	376.5092163085938	-90.54313659667969	1257.05322265625	56.53071975708008	64.5899658203125	1226.71533203125	94.34494781494141	113.5625610351562	1344.559448242188	102.5210952758789	123.4027481079102	1301.689086914062	230.4547729492188	225.2858123779297	
255	2.54	1164.416259765625	973.7294921875	133.9904327392578	990.9212646484375	964.7736206054688	160.1024475097656	1073.766967773438	1043.547729492188	131.6163635253906	1025.229125976562	1222.858642578125	-109.1480712890625	1078.080932617188	1161.3125	152.6163482666016	1041.54931640625	1404.8544921875	114.0799560546875	1025.252807617188	1320.191528320312	-41.87094116210938	1133.569580078125	1274.009033203125	148.7090911865234	946.3466796875	1360.801635742188	151.0461120605469	878.62939453125	1362.68603515625	70.34559631347656	818.8645629882812	1245.490234375	116.3400802612305	812.8446044921875	1045.357055664062	121.9848403930664	884.514404296875	1034.090698242188	172.4788360595703	834.881591796875	844.17431640625	7.151527404785156	782.4139404296875	824.0620727539062	52.65752792358398	799.1251220703125	946.0016479492188	100.6972198486328	829.857177734375	660.513427734375	-33.43224716186523	782.8405151367188	738.0051879882812	31.49530792236328	807.1212768554688	751.3219604492188	-28.85527992248535	1183.2451171875	1395.050048828125	17.87977600097656	1254.279052734375	1342.924560546875	13.89698600769043	1324.631591796875	1083.591552734375	34.38093566894531	1240.402709960938	1072.060424804688	76.74550628662109	1277.714721679688	860.1962890625	-64.87793731689453	1355.2412109375	858.9993896484375	-30.86476516723633	1339.240844726562	1016.431030273438	10.25455188751221	1279.818603515625	674.352294921875	-66.39183807373047	1294.55078125	744.3831787109375	-94.19821166992188	1350.58642578125	745.195556640625	-52.02949905395508	1069.452392578125	1583.736450195312	33.1129035949707	873.8895263671875	1555.576782226562	-47.05713653564453	949.4531860351562	1576.18798828125	-96.65648651123047	954.1192626953125	1541.343139648438	111.5073318481445	886.6610107421875	916.6538696289062	104.542121887207	1249.679077148438	928.208984375	16.5924186706543	1161.810546875	936.0117797851562	-90.36329650878906	914.9328002929688	929.21240234375	-38.59416961669922	981.3788452148438	459.8818359375	-46.77680587768555	930.1868286132812	594.6932983398438	-13.04113960266113	1085.064208984375	35.06809616088867	26.89858436584473	1026.839477539062	231.6023712158203	-12.62959861755371	1142.96875	26.69768714904785	-183.7476043701172	1180.902954101562	17.40293502807617	-111.2323913574219	1071.648071289062	34.24067687988281	-97.22601318359375	1145.278076171875	25.88466644287109	70.76262664794922	1224.264526367188	488.9845581054688	-160.0048828125	1241.317260742188	737.224853515625	-90.95523071289062	1344.562744140625	182.3184509277344	149.9881591796875	1239.760620117188	378.4032287597656	-112.7474517822266	1256.364990234375	55.73834609985352	26.42429542541504	1227.389892578125	90.11911773681641	78.64542388916016	1345.472534179688	99.51055145263672	84.81493377685547	1305.311279296875	220.1837921142578	196.1691131591797	
256	2.55	1165.567993164062	974.5341796875	123.1891555786133	992.7427978515625	965.1383666992188	153.4478607177734	1073.793090820312	1043.769653320312	123.26416015625	1021.417907714844	1224.056640625	-116.5645446777344	1077.745239257812	1162.16162109375	144.3472900390625	1041.406982421875	1405.872680664062	106.0079193115234	1022.89208984375	1321.441528320312	-49.3735466003418	1133.308715820312	1274.608276367188	139.6618194580078	946.6174926757812	1362.351440429688	144.3359069824219	877.9887084960938	1364.745483398438	64.68869018554688	817.9114379882812	1247.755981445312	110.8780364990234	811.051513671875	1047.79931640625	115.9684906005859	882.7098999023438	1035.784057617188	166.2226867675781	831.7218017578125	848.431396484375	-2.302938461303711	778.9236450195312	828.1823120117188	42.78946304321289	796.4767456054688	948.9681396484375	93.39049530029297	824.9016723632812	665.5181884765625	-45.7375602722168	778.34375	742.52099609375	20.16890144348145	803.1201171875	756.527099609375	-39.81784439086914	1181.996459960938	1395.40087890625	8.209195137023926	1252.833862304688	1343.072509765625	3.447878122329712	1322.437133789062	1083.624755859375	24.59773254394531	1238.386108398438	1072.651611328125	67.58615875244141	1274.530029296875	859.5270385742188	-72.6866455078125	1352.232543945312	858.4490966796875	-38.93353271484375	1336.743896484375	1016.329895019531	0.9149523377418518	1276.653076171875	673.831298828125	-73.38932037353516	1291.110595703125	743.3862915039062	-101.3079071044922	1347.334838867188	744.5606689453125	-59.42685699462891	1068.619018554688	1584.736694335938	23.47771453857422	872.0635375976562	1556.0166015625	-53.96019744873047	946.9616088867188	1576.321411132812	-104.6624755859375	954.2928466796875	1542.659790039062	103.4199295043945	886.9305419921875	916.4231567382812	100.4077529907227	1247.922119140625	929.6779174804688	3.280428409576416	1157.26220703125	937.5427856445312	-101.0076293945312	911.6312866210938	929.7872924804688	-43.32992172241211	980.840087890625	459.41748046875	-48.1530876159668	930.03857421875	594.4674682617188	-15.30314350128174	1085.361694335938	35.19750595092773	26.85441207885742	1026.678955078125	231.6437225341797	-13.137770652771	1142.924072265625	26.63001251220703	-183.8536987304688	1180.8818359375	17.28670120239258	-111.1955718994141	1071.760620117188	34.26453018188477	-97.25846862792969	1145.43994140625	26.04023933410645	70.71341705322266	1215.392700195312	492.4426574707031	-177.6549377441406	1235.982666015625	740.0025024414062	-106.3758697509766	1345.801147460938	174.145263671875	116.4431610107422	1232.28662109375	380.0528259277344	-134.2834167480469	1253.893310546875	54.80681991577148	-11.92651081085205	1226.555053710938	85.60426330566406	43.36205291748047	1344.771362304688	96.11161804199219	45.78982162475586	1308.123413085938	208.9353790283203	166.2729034423828	
